<svg width="58" height="58" viewBox="0 0 58 58" fill="none" xmlns="http://www.w3.org/2000/svg">
<path d="M28.9999 55.6668C43.7275 55.6668 55.6666 43.7278 55.6666 29.0002C55.6666 14.2726 43.7275 2.3335 28.9999 2.3335C14.2723 2.3335 2.33325 14.2726 2.33325 29.0002C2.33325 43.7278 14.2723 55.6668 28.9999 55.6668Z" fill="#FDFDFD"/>
<path d="M28.9999 13.0002V29.0002L39.6666 34.3335" fill="#FDFDFD"/>
<path d="M28.9999 13.0002V29.0002L39.6666 34.3335M55.6666 29.0002C55.6666 43.7278 43.7275 55.6668 28.9999 55.6668C14.2723 55.6668 2.33325 43.7278 2.33325 29.0002C2.33325 14.2726 14.2723 2.3335 28.9999 2.3335C43.7275 2.3335 55.6666 14.2726 55.6666 29.0002Z" stroke="#1E1E1E" stroke-width="4" stroke-linecap="round" stroke-linejoin="round"/>
</svg>
