<svg width="64" height="52" viewBox="0 0 64 52" fill="none" xmlns="http://www.w3.org/2000/svg">
<path d="M45.3334 50V44.6667C45.3334 41.8377 44.2096 39.1246 42.2092 37.1242C40.2088 35.1238 37.4957 34 34.6667 34H13.3334C10.5044 34 7.79133 35.1238 5.79094 37.1242C3.79055 39.1246 2.66675 41.8377 2.66675 44.6667V50" fill="#FDFDFD"/>
<path d="M24.0001 23.3333C29.8911 23.3333 34.6667 18.5577 34.6667 12.6667C34.6667 6.77563 29.8911 2 24.0001 2C18.109 2 13.3334 6.77563 13.3334 12.6667C13.3334 18.5577 18.109 23.3333 24.0001 23.3333Z" fill="#FDFDFD"/>
<path d="M61.3334 50V44.6667C61.3316 42.3033 60.545 40.0074 59.0971 38.1395C57.6491 36.2716 55.6218 34.9375 53.3334 34.3467" fill="#FDFDFD"/>
<path d="M42.6667 2.34667C44.9612 2.93414 46.9948 4.26854 48.4471 6.13949C49.8994 8.01045 50.6877 10.3115 50.6877 12.68C50.6877 15.0485 49.8994 17.3495 48.4471 19.2205C46.9948 21.0915 44.9612 22.4259 42.6667 23.0133" fill="#FDFDFD"/>
<path d="M45.3334 50V44.6667C45.3334 41.8377 44.2096 39.1246 42.2092 37.1242C40.2088 35.1238 37.4957 34 34.6667 34H13.3334C10.5044 34 7.79133 35.1238 5.79094 37.1242C3.79055 39.1246 2.66675 41.8377 2.66675 44.6667V50M61.3334 50V44.6667C61.3316 42.3033 60.545 40.0074 59.0971 38.1395C57.6491 36.2716 55.6218 34.9375 53.3334 34.3467M42.6667 2.34667C44.9612 2.93414 46.9948 4.26854 48.4471 6.13949C49.8994 8.01045 50.6877 10.3115 50.6877 12.68C50.6877 15.0485 49.8994 17.3495 48.4471 19.2205C46.9948 21.0915 44.9612 22.4259 42.6667 23.0133M34.6667 12.6667C34.6667 18.5577 29.8911 23.3333 24.0001 23.3333C18.109 23.3333 13.3334 18.5577 13.3334 12.6667C13.3334 6.77563 18.109 2 24.0001 2C29.8911 2 34.6667 6.77563 34.6667 12.6667Z" stroke="#1E1E1E" stroke-width="4" stroke-linecap="round" stroke-linejoin="round"/>
</svg>
