<svg width="64" height="64" viewBox="0 0 64 64" fill="none" xmlns="http://www.w3.org/2000/svg">
<path d="M56 26.6665C56 45.3332 32 61.3332 32 61.3332C32 61.3332 8 45.3332 8 26.6665C8 20.3013 10.5286 14.1968 15.0294 9.69594C19.5303 5.19507 25.6348 2.6665 32 2.6665C38.3652 2.6665 44.4697 5.19507 48.9706 9.69594C53.4714 14.1968 56 20.3013 56 26.6665Z" fill="#FDFDFD"/>
<path d="M32 34.6665C36.4183 34.6665 40 31.0848 40 26.6665C40 22.2482 36.4183 18.6665 32 18.6665C27.5817 18.6665 24 22.2482 24 26.6665C24 31.0848 27.5817 34.6665 32 34.6665Z" fill="#FDFDFD"/>
<path d="M56 26.6665C56 45.3332 32 61.3332 32 61.3332C32 61.3332 8 45.3332 8 26.6665C8 20.3013 10.5286 14.1968 15.0294 9.69594C19.5303 5.19507 25.6348 2.6665 32 2.6665C38.3652 2.6665 44.4697 5.19507 48.9706 9.69594C53.4714 14.1968 56 20.3013 56 26.6665Z" stroke="#1E1E1E" stroke-width="4" stroke-linecap="round" stroke-linejoin="round"/>
<path d="M32 34.6665C36.4183 34.6665 40 31.0848 40 26.6665C40 22.2482 36.4183 18.6665 32 18.6665C27.5817 18.6665 24 22.2482 24 26.6665C24 31.0848 27.5817 34.6665 32 34.6665Z" stroke="#1E1E1E" stroke-width="4" stroke-linecap="round" stroke-linejoin="round"/>
</svg>
